<svg width="189" height="64" viewBox="0 0 189 64" fill="none" xmlns="http://www.w3.org/2000/svg">
    <rect width="189" height="64" rx="5" fill="#219A7E"/>
    <path d="M5.57812 42V21.6562C5.57812 18.8125 6.58073 16.388 8.58594 14.3828C10.5911 12.3776 13.0156 11.375 15.8594 11.375C18.7031 11.375 21.1367 12.3776 23.1602 14.3828C25.1836 16.388 26.1953 18.8125 26.1953 21.6562V40.0859L21.8203 42V21.7383C21.7839 20.043 21.2005 18.6393 20.0703 17.5273C18.9036 16.3789 17.5273 15.8047 15.9414 15.8047C14.3008 15.8047 12.888 16.388 11.7031 17.5547C10.5365 18.6849 9.95312 20.0521 9.95312 21.6562C9.95312 21.6927 9.95312 21.7201 9.95312 21.7383V40.0859L5.57812 42ZM47.4688 37.5703C49 37.5703 50.349 36.9961 51.5156 35.8477C52.6458 34.7357 53.2292 33.332 53.2656 31.6367V31.2539L57.6406 29.3125V31.7188C57.6406 34.2708 56.5469 36.7135 54.3594 39.0469C52.5 41.0156 50.1484 42 47.3047 42C44.4609 42 42.0365 40.9974 40.0312 38.9922C38.026 36.987 37.0234 34.5625 37.0234 31.7188V21.6562C37.0234 18.8125 38.026 16.388 40.0312 14.3828C42.0365 12.3776 44.4609 11.375 47.3047 11.375C50.0391 11.375 52.4727 12.3776 54.6055 14.3828C56.6289 16.2786 57.6406 18.7031 57.6406 21.6562V24.2266L41.3984 31.4453C41.3984 33.1771 41.9727 34.6354 43.1211 35.8203C44.2695 36.987 45.7188 37.5703 47.4688 37.5703ZM47.1406 15.8047C45.6094 15.8047 44.2695 16.3789 43.1211 17.5273C41.9727 18.6758 41.3984 20.0521 41.3984 21.6562C41.3984 21.6927 41.3984 21.7201 41.3984 21.7383V26.6602L53.2383 21.3828C53.1471 19.8516 52.5729 18.5664 51.5156 17.5273C50.349 16.3789 48.8906 15.8047 47.1406 15.8047ZM66.0625 34.5352V13.2891L70.4375 11.375L70.4102 34.4258C70.4102 35.3372 70.7109 36.112 71.3125 36.75C71.9141 37.388 72.625 37.707 73.4453 37.707C74.3021 37.707 75.0312 37.388 75.6328 36.75C76.2526 36.0938 76.5625 35.3281 76.5625 34.4531C76.5625 34.4531 76.5625 34.444 76.5625 34.4258L76.5898 13.2891L80.9648 11.375L80.9375 34.4258C80.9375 35.3372 81.2383 36.112 81.8398 36.75C82.4414 37.388 83.1523 37.707 83.9727 37.707C84.8112 37.707 85.5404 37.388 86.1602 36.75C86.7799 36.112 87.0898 35.3372 87.0898 34.4258L87.1172 13.2891L91.4922 11.375V34.5625C91.4922 36.6042 90.763 38.3542 89.3047 39.8125C87.8464 41.2708 86.0872 42 84.0273 42C81.8945 42 80.1354 41.2891 78.75 39.8672C77.2917 41.2891 75.5417 42 73.5 42C71.3125 42 69.5352 41.2891 68.168 39.8672C66.7826 38.4271 66.0807 36.6497 66.0625 34.5352ZM97.5078 34.5352V13.2891L101.883 11.375L101.855 34.4258C101.855 35.3372 102.156 36.112 102.758 36.75C103.359 37.388 104.07 37.707 104.891 37.707C105.747 37.707 106.477 37.388 107.078 36.75C107.698 36.0938 108.008 35.3281 108.008 34.4531C108.008 34.4531 108.008 34.444 108.008 34.4258L108.035 13.2891L112.41 11.375L112.383 34.4258C112.383 35.3372 112.684 36.112 113.285 36.75C113.887 37.388 114.598 37.707 115.418 37.707C116.257 37.707 116.986 37.388 117.605 36.75C118.225 36.112 118.535 35.3372 118.535 34.4258L118.562 13.2891L122.938 11.375V34.5625C122.938 36.6042 122.208 38.3542 120.75 39.8125C119.292 41.2708 117.533 42 115.473 42C113.34 42 111.581 41.2891 110.195 39.8672C108.737 41.2891 106.987 42 104.945 42C102.758 42 100.98 41.2891 99.6133 39.8672C98.2279 38.4271 97.526 36.6497 97.5078 34.5352ZM135.762 33.9609C135.762 34.5625 135.999 35.1823 136.473 35.8203C137.348 36.987 138.742 37.5703 140.656 37.5703C141.823 37.5703 142.853 37.2969 143.746 36.75L145.387 40.8789C143.965 41.6263 142.388 42 140.656 42C137.922 42 135.497 40.9974 133.383 38.9922C131.961 37.5339 131.25 35.8568 131.25 33.9609C131.25 33.888 131.25 33.8151 131.25 33.7422C131.25 30.3333 132.991 27.918 136.473 26.4961L147.602 21.9297C147.602 20.1979 147.027 18.7487 145.879 17.582C144.73 16.3971 143.281 15.8047 141.531 15.8047C140 15.8047 138.651 16.3789 137.484 17.5273C136.354 18.6393 135.771 20.043 135.734 21.7383V22.1211L131.359 24.0625V21.6562C131.359 19.1042 132.453 16.6615 134.641 14.3281C136.5 12.3594 138.852 11.375 141.695 11.375C144.539 11.375 146.964 12.3776 148.969 14.3828C150.974 16.388 151.977 18.8125 151.977 21.6562V40.0859L147.602 42V26.7148L138.605 30.3789C136.71 31.2721 135.762 32.4661 135.762 33.9609ZM179.047 42.5742V40.168C177.333 41.3893 175.365 42 173.141 42C170.297 42 167.863 40.9974 165.84 38.9922C163.816 36.987 162.805 34.5625 162.805 31.7188V13.2891L167.18 11.375V31.6367C167.216 33.332 167.799 34.7357 168.93 35.8477C170.096 36.9961 171.555 37.5703 173.305 37.5703C174.836 37.5703 176.176 36.9961 177.324 35.8477C178.454 34.7174 179.029 33.3685 179.047 31.8008V31.6367V13.2891L183.422 11.375V42.6562C183.422 45.5 182.41 47.9245 180.387 49.9297C178.363 51.9349 175.93 52.9375 173.086 52.9375C170.242 52.9375 167.818 51.9349 165.812 49.9297C164.536 48.6536 163.671 47.2135 163.215 45.6094L167.562 44.6797C167.854 45.4635 168.337 46.1654 169.012 46.7852C170.27 47.9336 171.682 48.5078 173.25 48.5078C174.781 48.5078 176.13 47.9336 177.297 46.7852C178.427 45.6732 179.01 44.2695 179.047 42.5742Z" fill="white"/>
</svg>
